<svg width="139" height="82" viewBox="0 0 139 82" fill="none" xmlns="http://www.w3.org/2000/svg">
<path d="M58.6426 21.7665C58.6426 21.7665 65.3766 25.3492 72.4651 23.565C79.5536 21.7808 78.8448 2.86852 86.9965 3.58219C95.1483 4.29586 101.882 39.2872 101.882 39.2872" stroke="#F0D031" stroke-width="5.35253" stroke-linecap="round"/>
<path d="M46.6281 39.152C46.6281 41.1217 45.0403 42.7204 43.0839 42.7204H3.54425C1.58782 42.7204 0 41.1217 0 39.152V3.5184C0 1.57721 1.56656 0 3.49463 0C5.4227 0 6.98925 1.57721 6.98925 3.5184V36.7398C6.98925 37.1323 7.30824 37.4535 7.6981 37.4535H19.1744C19.5642 37.4535 19.8832 37.1323 19.8832 36.7398V3.4613C19.8832 1.54867 21.4214 0 23.3211 0C25.2209 0 26.7591 1.54867 26.7591 3.4613V36.7398C26.7591 37.1323 27.078 37.4535 27.4679 37.4535H38.9442C39.334 37.4535 39.653 37.1323 39.653 36.7398V3.5184C39.653 1.57721 41.2196 0 43.1477 0C45.0757 0 46.6423 1.57721 46.6423 3.5184V39.152H46.6281Z" fill="#31BE00"/>
<path d="M121.269 6.06621C120.879 6.06621 120.56 6.38736 120.56 6.77988V39.3518C120.56 41.2074 119.064 42.7204 117.221 42.7204C115.378 42.7204 113.883 41.2145 113.883 39.3518V3.56836C113.883 1.59862 115.471 0 117.427 0H135.864C137.53 0 138.877 1.35598 138.877 3.0331C138.877 4.71023 137.53 6.06621 135.864 6.06621H121.276H121.269Z" fill="#FF8E25"/>
<path d="M1.78636 68.8025H1.74166V76.4882H0.0253906V60.7207H1.74166V67.7405H1.78636L8.74083 60.7207H10.8236L3.29703 68.2805L11.0381 76.4882H8.98218L1.79529 68.8025H1.78636ZM15.1947 70.7914V65.2656H23.4543V76.4972H21.8632V66.6065H16.7322V71.0524C16.7322 73.1943 16.4283 74.6523 15.8115 75.4172C15.1947 76.1822 14.0237 76.6142 12.2896 76.7132L12.2002 75.3722C13.0315 75.3272 13.6394 75.1923 14.0237 74.9583C14.426 74.7243 14.721 74.3013 14.8997 73.6803C15.0875 73.0503 15.1768 72.0784 15.1768 70.7824L15.1947 70.7914ZM33.8413 67.5515C33.1977 66.7415 32.3127 66.3455 31.1775 66.3455C30.0423 66.3455 29.1573 66.7505 28.4958 67.5515C27.8522 68.3435 27.5304 69.4504 27.5304 70.8814C27.5304 72.3123 27.8522 73.4193 28.4958 74.2293C29.1573 75.0213 30.0512 75.4172 31.1775 75.4172C32.3038 75.4172 33.1977 75.0213 33.8413 74.2293C34.5028 73.4193 34.8246 72.3033 34.8246 70.8814C34.8246 69.4594 34.4938 68.3435 33.8413 67.5515ZM35.0034 75.1293C34.0469 76.1822 32.7686 76.7042 31.1864 76.7042C29.6042 76.7042 28.326 76.1822 27.3695 75.1293C26.4131 74.0763 25.9304 72.6633 25.9304 70.8724C25.9304 69.0814 26.4131 67.6685 27.3695 66.6155C28.326 65.5625 29.6042 65.0406 31.1864 65.0406C32.7686 65.0406 34.0469 65.5625 35.0034 66.6155C35.9598 67.6685 36.4425 69.0814 36.4425 70.8724C36.4425 72.6633 35.9598 74.0763 35.0034 75.1293ZM40.5455 75.3632C41.0729 75.4532 41.6539 75.4892 42.2796 75.4892C44.6663 75.4892 45.8641 74.7063 45.8641 73.1313C45.8641 71.7094 44.5948 70.9894 42.0651 70.9894H40.5455V75.3543V75.3632ZM40.5455 69.9184H42.0472C43.0752 69.9184 43.8797 69.7474 44.4518 69.3964C45.0239 69.0544 45.3099 68.5775 45.3099 67.9745C45.3099 66.8225 44.2551 66.2465 42.1545 66.2465C41.6003 66.2465 41.0639 66.2915 40.5455 66.3725V69.9184ZM47.4553 73.2483C47.4553 75.5072 45.7122 76.6412 42.2171 76.6412C40.9477 76.6412 39.8393 76.5602 38.9097 76.4072V65.3466C39.9287 65.1846 40.9656 65.1126 42.0383 65.1126C43.7724 65.1126 44.9971 65.3736 45.73 65.8865C46.472 66.3905 46.8474 67.0385 46.8474 67.8305C46.8474 68.4785 46.6239 69.0274 46.1859 69.4684C45.739 69.9004 45.1222 70.2064 44.3177 70.3774V70.3954C45.3367 70.5574 46.1055 70.8814 46.6329 71.3854C47.1781 71.8714 47.4463 72.4923 47.4463 73.2393L47.4553 73.2483ZM50.8789 70.2244H57.7439C57.7261 68.9734 57.4311 68.0105 56.8411 67.3265C56.2512 66.6515 55.4466 66.3095 54.4187 66.3095C53.3907 66.3095 52.4968 66.6515 51.8621 67.3445C51.2454 68.0195 50.9146 68.9824 50.8789 70.2154V70.2244ZM50.8789 71.4754C50.9057 72.6993 51.2811 73.6623 51.9962 74.3733C52.7113 75.0753 53.641 75.4352 54.7852 75.4352C55.9294 75.4352 56.9841 75.1473 58.0658 74.5713L58.4948 75.8042C57.297 76.4072 56.0098 76.7132 54.6332 76.7132C53.0331 76.7132 51.737 76.1912 50.7537 75.1383C49.7704 74.0853 49.2699 72.6723 49.2699 70.8814C49.2699 69.0904 49.7257 67.6415 50.6465 66.6065C51.5761 65.5716 52.8365 65.0496 54.4187 65.0496C56.0009 65.0496 57.154 65.5445 58.0032 66.5435C58.8613 67.5245 59.2904 68.9374 59.2904 70.7734C59.2904 70.9624 59.2725 71.1964 59.2457 71.4844H50.8789V71.4754ZM67.0672 76.7042C65.4493 76.7042 64.2515 76.0472 63.4648 74.7423H63.4202V81.2401H61.8559V65.2566H63.3576L63.3755 67.1555H63.4202C64.2068 65.7425 65.4225 65.0406 67.0672 65.0406C68.4706 65.0406 69.5701 65.5446 70.3746 66.5525C71.1791 67.5425 71.5724 68.9824 71.5724 70.8724C71.5724 72.7623 71.1613 74.1483 70.3299 75.1742C69.5165 76.2002 68.4259 76.7042 67.0672 76.7042ZM70.026 70.8724C70.026 69.4054 69.731 68.2805 69.15 67.5065C68.5779 66.7325 67.7734 66.3365 66.7276 66.3365C65.7443 66.3365 64.9398 66.7235 64.323 67.5065C63.7241 68.2805 63.4202 69.3604 63.4202 70.7284V71.0344C63.4202 72.4293 63.7241 73.5093 64.3409 74.2743C64.9577 75.0393 65.7532 75.4172 66.7186 75.4172C67.684 75.4172 68.5332 75.0303 69.1232 74.2473C69.7221 73.4553 70.026 72.3303 70.026 70.8814V70.8724ZM75.7827 74.2833H75.8274L82.174 65.2566H83.935V76.4882H82.3081V67.4615H82.2902L75.9168 76.4882H74.1558V65.2566H75.7827V74.2833Z" fill="#2E3192"/>
</svg>
