<svg width="40" height="40" viewBox="0 0 40 40" fill="none" xmlns="http://www.w3.org/2000/svg">
<path fill-rule="evenodd" clip-rule="evenodd" d="M9.24609 16.5C9.24609 16.0858 9.58188 15.75 9.99609 15.75H19.4961C19.9103 15.75 20.2461 16.0858 20.2461 16.5C20.2461 16.9142 19.9103 17.25 19.4961 17.25H9.99609C9.58188 17.25 9.24609 16.9142 9.24609 16.5Z" fill="#84858B"/>
<path fill-rule="evenodd" clip-rule="evenodd" d="M13.2461 24.5C13.2461 24.0858 13.5819 23.75 13.9961 23.75H15.9961C16.4103 23.75 16.7461 24.0858 16.7461 24.5C16.7461 24.9142 16.4103 25.25 15.9961 25.25H13.9961C13.5819 25.25 13.2461 24.9142 13.2461 24.5Z" fill="#84858B"/>
<path fill-rule="evenodd" clip-rule="evenodd" d="M17.7461 24.5C17.7461 24.0858 18.0819 23.75 18.4961 23.75H22.4961C22.9103 23.75 23.2461 24.0858 23.2461 24.5C23.2461 24.9142 22.9103 25.25 22.4961 25.25H18.4961C18.0819 25.25 17.7461 24.9142 17.7461 24.5Z" fill="#84858B"/>
<path fill-rule="evenodd" clip-rule="evenodd" d="M11.4122 12.9121C10.9871 13.3324 10.7461 14.1312 10.7461 15.89V24.11C10.7461 25.8688 10.9871 26.6676 11.4122 27.0879C11.8402 27.5111 12.6551 27.75 14.4361 27.75H25.5561C27.3371 27.75 28.152 27.5111 28.58 27.0879C29.0051 26.6676 29.2461 25.8688 29.2461 24.11V20.03C29.2461 19.6158 29.5819 19.28 29.9961 19.28C30.4103 19.28 30.7461 19.6158 30.7461 20.03V24.11C30.7461 25.8612 30.5421 27.2574 29.6347 28.1546C28.7302 29.0489 27.3251 29.25 25.5561 29.25H14.4361C12.6671 29.25 11.262 29.0489 10.3575 28.1546C9.45009 27.2574 9.24609 25.8612 9.24609 24.11V15.89C9.24609 14.1388 9.45009 12.7426 10.3575 11.8454C11.262 10.9511 12.6671 10.75 14.4361 10.75H22.4961C22.9103 10.75 23.2461 11.0858 23.2461 11.5C23.2461 11.9142 22.9103 12.25 22.4961 12.25H14.4361C12.6551 12.25 11.8402 12.4889 11.4122 12.9121Z" fill="#84858B"/>
<path fill-rule="evenodd" clip-rule="evenodd" d="M28.0547 10.7925C28.7376 10.728 29.3677 11.041 29.9368 11.6101C30.5027 12.176 30.8122 12.8048 30.7454 13.4861C30.6824 14.1281 30.2992 14.6283 29.9368 14.9908L26.2268 18.7008C26.0812 18.8464 25.9009 18.9593 25.7444 19.0375C25.587 19.1162 25.3898 19.1918 25.1877 19.2222L25.1811 19.2231L23.7584 19.4235C23.303 19.486 22.8411 19.3607 22.5086 19.0283C22.1762 18.6958 22.0509 18.2339 22.1134 17.7785L22.1138 17.7758L22.3147 16.3492C22.345 16.1471 22.4207 15.9499 22.4994 15.7925C22.5777 15.636 22.6905 15.4557 22.8361 15.3101L26.5461 11.6001C26.9085 11.2377 27.4098 10.8534 28.0547 10.7925ZM28.1957 12.2859C28.0731 12.2975 27.8844 12.3832 27.6068 12.6608L23.8994 16.3682C23.8981 16.3697 23.8927 16.3763 23.8838 16.3893C23.8708 16.4086 23.8557 16.434 23.841 16.4634C23.8264 16.4927 23.8148 16.5206 23.8068 16.5437C23.8008 16.561 23.7985 16.5709 23.798 16.573L23.6069 17.93L24.9639 17.7389C24.9661 17.7384 24.9759 17.7361 24.9932 17.7301C25.0164 17.7221 25.0442 17.7105 25.0735 17.6959C25.1029 17.6812 25.1283 17.6661 25.1476 17.6531C25.1606 17.6442 25.1672 17.6388 25.1687 17.6376L28.8761 13.9301C29.1537 13.6526 29.2405 13.4628 29.2525 13.3398C29.2607 13.2561 29.2502 13.0449 28.8761 12.6708C28.4952 12.2899 28.2804 12.2779 28.1957 12.2859Z" fill="#84858B"/>
<path fill-rule="evenodd" clip-rule="evenodd" d="M26.3425 11.9387C26.741 11.8259 27.1556 12.0575 27.2684 12.456C27.518 13.3372 28.2026 14.0183 29.0669 14.2575C29.4661 14.368 29.7001 14.7812 29.5896 15.1804C29.4792 15.5796 29.066 15.8137 28.6668 15.7032C27.291 15.3224 26.2156 14.2435 25.8252 12.8647C25.7123 12.4662 25.9439 12.0516 26.3425 11.9387Z" fill="#84858B"/>
</svg>
