<svg width="40" height="40" viewBox="0 0 40 40" fill="none" xmlns="http://www.w3.org/2000/svg">
<path fill-rule="evenodd" clip-rule="evenodd" d="M11.5303 11.5303C11.0188 12.0418 10.75 12.9946 10.75 15V25C10.75 27.0054 11.0188 27.9582 11.5303 28.4697C12.0418 28.9812 12.9946 29.25 15 29.25H25C27.0054 29.25 27.9582 28.9812 28.4697 28.4697C28.9812 27.9582 29.25 27.0054 29.25 25V19C29.25 16.9946 28.9812 16.0418 28.4697 15.5303C27.9582 15.0188 27.0054 14.75 25 14.75H22C21.4323 14.75 20.9717 14.6664 20.5796 14.4294C20.2295 14.2178 20.0015 13.9164 19.8342 13.6952C19.8235 13.6811 19.8131 13.6672 19.8029 13.6538L19.8 13.65L19.8 13.65L18.3 11.65C17.9971 11.2461 17.8561 11.0742 17.6625 10.9579C17.4867 10.8523 17.1851 10.75 16.5 10.75H15C12.9946 10.75 12.0418 11.0188 11.5303 11.5303ZM10.4697 10.4697C11.4582 9.48116 13.0054 9.25 15 9.25H16.5C17.3149 9.25 17.9283 9.36772 18.435 9.67209C18.9039 9.9538 19.2074 10.3591 19.4671 10.706C19.4781 10.7208 19.4891 10.7355 19.5 10.75L20.9986 12.7482C21.2074 13.0228 21.2731 13.0959 21.3554 13.1456C21.4183 13.1836 21.5677 13.25 22 13.25H25C26.9946 13.25 28.5418 13.4812 29.5303 14.4697C30.5188 15.4582 30.75 17.0054 30.75 19V25C30.75 26.9946 30.5188 28.5418 29.5303 29.5303C28.5418 30.5188 26.9946 30.75 25 30.75H15C13.0054 30.75 11.4582 30.5188 10.4697 29.5303C9.48116 28.5418 9.25 26.9946 9.25 25V15C9.25 13.0054 9.48116 11.4582 10.4697 10.4697Z" fill="#84858B"/>
<path fill-rule="evenodd" clip-rule="evenodd" d="M15.25 10C15.25 9.58579 15.5858 9.25 16 9.25H25C26.1156 9.25 27.0901 9.52941 27.7803 10.2197C28.4706 10.9099 28.75 11.8844 28.75 13V14.38C28.75 14.7942 28.4142 15.13 28 15.13C27.5858 15.13 27.25 14.7942 27.25 14.38V13C27.25 12.1156 27.0294 11.5901 26.7197 11.2803C26.4099 10.9706 25.8844 10.75 25 10.75H16C15.5858 10.75 15.25 10.4142 15.25 10Z" fill="#84858B"/>
</svg>
