<svg width="40" height="40" viewBox="0 0 40 40" fill="none" xmlns="http://www.w3.org/2000/svg">
<path d="M27.9687 18H11.9688V26C11.9688 29 12.9687 30 15.9687 30H23.9688C26.9688 30 27.9687 29 27.9687 26V18Z" stroke="#84858B" stroke-width="1.5" stroke-miterlimit="10" stroke-linecap="round" stroke-linejoin="round"/>
<path d="M29.5 15V16C29.5 17.1 28.97 18 27.5 18H12.5C10.97 18 10.5 17.1 10.5 16V15C10.5 13.9 10.97 13 12.5 13H27.5C28.97 13 29.5 13.9 29.5 15Z" stroke="#84858B" stroke-width="1.5" stroke-miterlimit="10" stroke-linecap="round" stroke-linejoin="round"/>
<path d="M19.6388 12.9995H14.1188C13.7788 12.6295 13.7888 12.0595 14.1488 11.6995L15.5688 10.2795C15.9388 9.90945 16.5488 9.90945 16.9188 10.2795L19.6388 12.9995Z" stroke="#84858B" stroke-width="1.5" stroke-miterlimit="10" stroke-linecap="round" stroke-linejoin="round"/>
<path d="M25.8696 12.9995H20.3496L23.0696 10.2795C23.4396 9.90945 24.0496 9.90945 24.4196 10.2795L25.8396 11.6995C26.1996 12.0595 26.2096 12.6295 25.8696 12.9995Z" stroke="#84858B" stroke-width="1.5" stroke-miterlimit="10" stroke-linecap="round" stroke-linejoin="round"/>
<path d="M16.9414 18V23.14C16.9414 23.94 17.8214 24.41 18.4914 23.98L19.4314 23.36C19.7714 23.14 20.2014 23.14 20.5314 23.36L21.4214 23.96C22.0814 24.4 22.9714 23.93 22.9714 23.13V18H16.9414Z" stroke="#84858B" stroke-width="1.5" stroke-miterlimit="10" stroke-linecap="round" stroke-linejoin="round"/>
</svg>
