<svg width="40" height="40" viewBox="0 0 40 40" fill="none" xmlns="http://www.w3.org/2000/svg">
<path d="M20 23C21.6569 23 23 21.6569 23 20C23 18.3431 21.6569 17 20 17C18.3431 17 17 18.3431 17 20C17 21.6569 18.3431 23 20 23Z" stroke="#84858B" stroke-width="1.5" stroke-miterlimit="10" stroke-linecap="round" stroke-linejoin="round"/>
<path d="M10 20.8794V19.1194C10 18.0794 10.85 17.2194 11.9 17.2194C13.71 17.2194 14.45 15.9394 13.54 14.3694C13.02 13.4694 13.33 12.2994 14.24 11.7794L15.97 10.7894C16.76 10.3194 17.78 10.5994 18.25 11.3894L18.36 11.5794C19.26 13.1494 20.74 13.1494 21.65 11.5794L21.76 11.3894C22.23 10.5994 23.25 10.3194 24.04 10.7894L25.77 11.7794C26.68 12.2994 26.99 13.4694 26.47 14.3694C25.56 15.9394 26.3 17.2194 28.11 17.2194C29.15 17.2194 30.01 18.0694 30.01 19.1194V20.8794C30.01 21.9194 29.16 22.7794 28.11 22.7794C26.3 22.7794 25.56 24.0594 26.47 25.6294C26.99 26.5394 26.68 27.6994 25.77 28.2194L24.04 29.2094C23.25 29.6794 22.23 29.3994 21.76 28.6094L21.65 28.4194C20.75 26.8494 19.27 26.8494 18.36 28.4194L18.25 28.6094C17.78 29.3994 16.76 29.6794 15.97 29.2094L14.24 28.2194C13.33 27.6994 13.02 26.5294 13.54 25.6294C14.45 24.0594 13.71 22.7794 11.9 22.7794C10.85 22.7794 10 21.9194 10 20.8794Z" stroke="#84858B" stroke-width="1.5" stroke-miterlimit="10" stroke-linecap="round" stroke-linejoin="round"/>
</svg>
